<?xml version="1.0" standalone="no"?>
<!DOCTYPE svg PUBLIC "-//W3C//DTD SVG 20010904//EN"
 "http://www.w3.org/TR/2001/REC-SVG-20010904/DTD/svg10.dtd">
<svg version="1.0" xmlns="http://www.w3.org/2000/svg"
 width="378.000000pt" height="378.000000pt" viewBox="0 0 378.000000 378.000000"
 preserveAspectRatio="xMidYMid meet">
<metadata>
Created by potrace 1.11, written by Peter Selinger 2001-2013
</metadata>
<g transform="translate(0.000000,378.000000) scale(0.100000,-0.100000)"
fill="#000000" stroke="none">
<path d="M900 1915 l0 -455 75 0 75 0 0 30 c0 36 3 37 43 6 48 -36 102 -49
176 -44 163 12 253 126 254 323 0 50 -5 109 -11 132 -19 63 -71 134 -126 168
-45 27 -57 30 -135 30 -84 0 -112 -8 -158 -41 l-23 -16 0 161 0 161 -85 0 -85
0 0 -455z m363 41 c82 -35 115 -134 86 -252 -33 -132 -196 -153 -256 -34 -43
84 -24 227 36 269 45 32 87 37 134 17z"/>
<path d="M2290 1915 l0 -455 75 0 75 0 0 30 c0 36 3 37 43 6 48 -36 102 -49
176 -44 163 12 253 126 254 323 0 50 -5 109 -11 132 -19 63 -71 134 -126 168
-45 27 -57 30 -135 30 -84 0 -112 -8 -158 -41 l-23 -16 0 161 0 161 -85 0 -85
0 0 -455z m363 41 c82 -35 115 -134 86 -252 -33 -132 -196 -153 -256 -34 -43
84 -24 227 36 269 45 32 87 37 134 17z"/>
<path d="M1782 2096 c-95 -31 -154 -107 -154 -198 1 -100 63 -152 231 -193
126 -32 143 -40 139 -68 -4 -29 -43 -47 -103 -47 -68 0 -130 30 -156 75 l-22
36 -26 -23 c-95 -82 -92 -78 -73 -110 40 -68 124 -108 243 -115 104 -7 173 8
229 48 58 42 80 83 80 149 0 108 -54 154 -235 200 -118 30 -149 47 -138 76 9
24 59 44 106 44 52 0 104 -31 127 -75 8 -17 16 -32 17 -34 4 -7 122 85 123 96
0 25 -68 98 -114 122 -40 21 -66 26 -140 28 -58 2 -107 -2 -134 -11z"/>
</g>
</svg>
